<svg xmlns="http://www.w3.org/2000/svg" xmlns:xlink="http://www.w3.org/1999/xlink" width="100" zoomAndPan="magnify" viewBox="0 0 75 30.000001" height="40" preserveAspectRatio="xMidYMid meet" version="1.2"><defs><clipPath id="9234bba42c"><path d="M 2.082031 7.109375 L 20.402344 7.109375 L 20.402344 10 L 2.082031 10 Z M 2.082031 7.109375 "/></clipPath><clipPath id="8059f9248d"><path d="M 2.082031 9 L 20.402344 9 L 20.402344 21.921875 L 2.082031 21.921875 Z M 2.082031 9 "/></clipPath><clipPath id="9328fbc801"><path d="M 3 7.109375 L 5 7.109375 L 5 9 L 3 9 Z M 3 7.109375 "/></clipPath><clipPath id="b49556a514"><path d="M 5 7.109375 L 7 7.109375 L 7 9 L 5 9 Z M 5 7.109375 "/></clipPath><clipPath id="ef646e3ff2"><path d="M 7 7.109375 L 9 7.109375 L 9 9 L 7 9 Z M 7 7.109375 "/></clipPath><clipPath id="acc10bc73d"><path d="M 1.210938 6.238281 L 21.269531 6.238281 L 21.269531 22.785156 L 1.210938 22.785156 Z M 1.210938 6.238281 "/></clipPath><clipPath id="5e90f07fb1"><path d="M 62 9 L 73.789062 9 L 73.789062 29 L 62 29 Z M 62 9 "/></clipPath></defs><g id="c040f9e696"><g clip-rule="nonzero" clip-path="url(#9234bba42c)"><path style=" stroke:none;fill-rule:nonzero;fill:#8c52ff;fill-opacity:1;" d="M 20.980469 9.890625 C 20.828125 9.890625 20.703125 9.769531 20.703125 9.617188 L 20.703125 6.789062 L 1.777344 6.789062 L 1.777344 9.617188 C 1.777344 9.769531 1.652344 9.890625 1.5 9.890625 C 1.347656 9.890625 1.226562 9.769531 1.226562 9.617188 L 1.226562 6.515625 C 1.226562 6.363281 1.347656 6.238281 1.5 6.238281 L 20.980469 6.238281 C 21.132812 6.238281 21.253906 6.363281 21.253906 6.515625 L 21.253906 9.617188 C 21.253906 9.769531 21.132812 9.890625 20.980469 9.890625 "/></g><g clip-rule="nonzero" clip-path="url(#8059f9248d)"><path style=" stroke:none;fill-rule:nonzero;fill:#8c52ff;fill-opacity:1;" d="M 1.777344 22.234375 L 20.703125 22.234375 L 20.703125 9.890625 L 1.777344 9.890625 Z M 20.980469 22.785156 L 1.5 22.785156 C 1.347656 22.785156 1.226562 22.664062 1.226562 22.511719 L 1.226562 9.617188 C 1.226562 9.464844 1.347656 9.339844 1.5 9.339844 L 20.980469 9.339844 C 21.132812 9.339844 21.253906 9.464844 21.253906 9.617188 L 21.253906 22.511719 C 21.253906 22.664062 21.132812 22.785156 20.980469 22.785156 "/></g><g clip-rule="nonzero" clip-path="url(#9328fbc801)"><path style=" stroke:none;fill-rule:nonzero;fill:#8c52ff;fill-opacity:1;" d="M 3.949219 8.523438 C 3.695312 8.523438 3.492188 8.320312 3.492188 8.066406 C 3.492188 7.8125 3.695312 7.605469 3.949219 7.605469 C 4.203125 7.605469 4.40625 7.8125 4.40625 8.066406 C 4.40625 8.320312 4.203125 8.523438 3.949219 8.523438 "/></g><g clip-rule="nonzero" clip-path="url(#b49556a514)"><path style=" stroke:none;fill-rule:nonzero;fill:#8c52ff;fill-opacity:1;" d="M 5.753906 8.523438 C 5.503906 8.523438 5.296875 8.320312 5.296875 8.066406 C 5.296875 7.8125 5.503906 7.605469 5.753906 7.605469 C 6.007812 7.605469 6.214844 7.8125 6.214844 8.066406 C 6.214844 8.320312 6.007812 8.523438 5.753906 8.523438 "/></g><g clip-rule="nonzero" clip-path="url(#ef646e3ff2)"><path style=" stroke:none;fill-rule:nonzero;fill:#8c52ff;fill-opacity:1;" d="M 7.5625 8.523438 C 7.308594 8.523438 7.105469 8.320312 7.105469 8.066406 C 7.105469 7.8125 7.308594 7.605469 7.5625 7.605469 C 7.816406 7.605469 8.019531 7.8125 8.019531 8.066406 C 8.019531 8.320312 7.816406 8.523438 7.5625 8.523438 "/></g><path style=" stroke:none;fill-rule:nonzero;fill:#8c52ff;fill-opacity:1;" d="M 8.941406 19.148438 C 8.871094 19.148438 8.800781 19.121094 8.746094 19.066406 L 5.9375 16.257812 C 5.886719 16.207031 5.855469 16.136719 5.855469 16.0625 C 5.855469 15.992188 5.886719 15.921875 5.9375 15.871094 L 8.746094 13.058594 C 8.855469 12.953125 9.027344 12.953125 9.136719 13.058594 C 9.242188 13.167969 9.242188 13.339844 9.136719 13.449219 L 6.519531 16.0625 L 9.136719 18.679688 C 9.242188 18.785156 9.242188 18.960938 9.136719 19.066406 C 9.082031 19.121094 9.011719 19.148438 8.941406 19.148438 "/><path style=" stroke:none;fill-rule:nonzero;fill:#8c52ff;fill-opacity:1;" d="M 13.539062 19.148438 C 13.46875 19.148438 13.398438 19.121094 13.34375 19.066406 C 13.238281 18.960938 13.238281 18.785156 13.34375 18.679688 L 15.960938 16.0625 L 13.34375 13.449219 C 13.238281 13.339844 13.238281 13.167969 13.34375 13.058594 C 13.453125 12.953125 13.625 12.953125 13.734375 13.058594 L 16.542969 15.871094 C 16.652344 15.976562 16.652344 16.152344 16.542969 16.257812 L 13.734375 19.066406 C 13.679688 19.121094 13.609375 19.148438 13.539062 19.148438 "/><path style=" stroke:none;fill-rule:nonzero;fill:#8c52ff;fill-opacity:1;" d="M 10.21875 20.15625 C 10.195312 20.15625 10.167969 20.15625 10.144531 20.148438 C 10 20.109375 9.914062 19.957031 9.953125 19.8125 L 12 12.171875 C 12.039062 12.027344 12.1875 11.9375 12.335938 11.976562 C 12.480469 12.019531 12.570312 12.167969 12.53125 12.316406 L 10.484375 19.953125 C 10.449219 20.078125 10.339844 20.15625 10.21875 20.15625 "/><g clip-rule="nonzero" clip-path="url(#acc10bc73d)"><path style="fill:none;stroke-width:2;stroke-linecap:butt;stroke-linejoin:miter;stroke:#5271ff;stroke-opacity:1;stroke-miterlimit:4;" d="M 0.00173778 -0.0013954 L 0.00173778 22.796521 L 27.638024 22.796521 L 27.638024 -0.0013954 L 0.00173778 -0.0013954 " transform="matrix(0.725806,0,0,0.725806,1.209676,6.239294)"/></g><g style="fill:#5271ff;fill-opacity:0.4;"><g transform="translate(24.707356, 23.234318)"><path style="stroke:none" d="M 2.484375 0 L 2.484375 -16.4375 L 8.703125 -16.4375 C 9.722656 -16.4375 10.582031 -16.273438 11.28125 -15.953125 C 11.988281 -15.628906 12.519531 -15.164062 12.875 -14.5625 C 13.226562 -13.96875 13.40625 -13.257812 13.40625 -12.4375 C 13.40625 -11.726562 13.210938 -11.082031 12.828125 -10.5 C 12.441406 -9.925781 11.890625 -9.476562 11.171875 -9.15625 L 11.171875 -8.921875 C 12.265625 -8.648438 13.09375 -8.160156 13.65625 -7.453125 C 14.226562 -6.742188 14.515625 -5.847656 14.515625 -4.765625 C 14.515625 -3.234375 14.066406 -2.054688 13.171875 -1.234375 C 12.273438 -0.410156 10.945312 0 9.1875 0 Z M 8.625 -9.53125 C 9.53125 -9.53125 10.234375 -9.765625 10.734375 -10.234375 C 11.234375 -10.710938 11.484375 -11.367188 11.484375 -12.203125 C 11.484375 -13.078125 11.238281 -13.734375 10.75 -14.171875 C 10.269531 -14.609375 9.5625 -14.828125 8.625 -14.828125 L 4.421875 -14.828125 L 4.421875 -9.53125 Z M 9.03125 -1.59375 C 11.375 -1.59375 12.546875 -2.648438 12.546875 -4.765625 C 12.546875 -6.878906 11.375 -7.9375 9.03125 -7.9375 L 4.421875 -7.9375 L 4.421875 -1.59375 Z M 9.03125 -1.59375 "/></g></g><g style="fill:#5271ff;fill-opacity:0.4;"><g transform="translate(40.520682, 23.234318)"><path style="stroke:none" d="M 4.9375 0.234375 C 4.0625 0.234375 3.367188 -0.015625 2.859375 -0.515625 C 2.359375 -1.015625 2.109375 -1.753906 2.109375 -2.734375 L 2.109375 -17.375 L 3.9375 -17.375 L 3.9375 -2.859375 C 3.9375 -2.347656 4.035156 -1.976562 4.234375 -1.75 C 4.441406 -1.519531 4.753906 -1.40625 5.171875 -1.40625 C 5.421875 -1.40625 5.675781 -1.445312 5.9375 -1.53125 L 6.109375 -1.484375 L 6.3125 -0.046875 C 6.175781 0.046875 5.984375 0.113281 5.734375 0.15625 C 5.484375 0.207031 5.21875 0.234375 4.9375 0.234375 Z M 4.9375 0.234375 "/></g></g><g style="fill:#5271ff;fill-opacity:0.4;"><g transform="translate(47.264104, 23.234318)"><path style="stroke:none" d="M 7.109375 0.234375 C 5.941406 0.234375 4.925781 -0.0078125 4.0625 -0.5 C 3.195312 -1 2.53125 -1.726562 2.0625 -2.6875 C 1.59375 -3.65625 1.359375 -4.820312 1.359375 -6.1875 C 1.359375 -7.5625 1.59375 -8.726562 2.0625 -9.6875 C 2.53125 -10.65625 3.195312 -11.382812 4.0625 -11.875 C 4.925781 -12.375 5.941406 -12.625 7.109375 -12.625 C 8.273438 -12.625 9.289062 -12.375 10.15625 -11.875 C 11.03125 -11.382812 11.703125 -10.65625 12.171875 -9.6875 C 12.640625 -8.726562 12.875 -7.5625 12.875 -6.1875 C 12.875 -4.820312 12.640625 -3.65625 12.171875 -2.6875 C 11.703125 -1.726562 11.03125 -1 10.15625 -0.5 C 9.289062 -0.0078125 8.273438 0.234375 7.109375 0.234375 Z M 7.109375 -1.40625 C 8.347656 -1.40625 9.296875 -1.796875 9.953125 -2.578125 C 10.609375 -3.359375 10.9375 -4.5625 10.9375 -6.1875 C 10.9375 -7.832031 10.609375 -9.039062 9.953125 -9.8125 C 9.296875 -10.59375 8.347656 -10.984375 7.109375 -10.984375 C 5.878906 -10.984375 4.929688 -10.59375 4.265625 -9.8125 C 3.609375 -9.03125 3.28125 -7.820312 3.28125 -6.1875 C 3.28125 -4.5625 3.609375 -3.359375 4.265625 -2.578125 C 4.929688 -1.796875 5.878906 -1.40625 7.109375 -1.40625 Z M 7.109375 -1.40625 "/></g></g><g clip-rule="nonzero" clip-path="url(#5e90f07fb1)"><g style="fill:#5271ff;fill-opacity:0.4;"><g transform="translate(61.402814, 23.234318)"><path style="stroke:none" d="M 6.390625 5.265625 C 4.429688 5.265625 3 4.9375 2.09375 4.28125 C 1.195312 3.625 0.75 2.757812 0.75 1.6875 C 0.75 0.988281 0.957031 0.429688 1.375 0.015625 C 1.800781 -0.390625 2.414062 -0.679688 3.21875 -0.859375 L 3.21875 -1.09375 C 2.832031 -1.3125 2.539062 -1.566406 2.34375 -1.859375 C 2.15625 -2.148438 2.0625 -2.5 2.0625 -2.90625 C 2.0625 -3.382812 2.210938 -3.773438 2.515625 -4.078125 C 2.828125 -4.378906 3.28125 -4.609375 3.875 -4.765625 L 3.875 -5 C 2.53125 -5.707031 1.859375 -6.863281 1.859375 -8.46875 C 1.859375 -9.28125 2.039062 -10 2.40625 -10.625 C 2.769531 -11.257812 3.289062 -11.75 3.96875 -12.09375 C 4.65625 -12.445312 5.453125 -12.625 6.359375 -12.625 C 7.398438 -12.625 8.269531 -12.398438 8.96875 -11.953125 C 9.226562 -12.242188 9.421875 -12.554688 9.546875 -12.890625 C 9.679688 -13.222656 9.769531 -13.597656 9.8125 -14.015625 L 10.046875 -14.15625 L 11.546875 -13.796875 C 11.472656 -13.171875 11.285156 -12.640625 10.984375 -12.203125 C 10.679688 -11.765625 10.253906 -11.40625 9.703125 -11.125 L 9.703125 -10.890625 C 10.097656 -10.578125 10.390625 -10.207031 10.578125 -9.78125 C 10.773438 -9.351562 10.875 -8.863281 10.875 -8.3125 C 10.875 -7.53125 10.6875 -6.828125 10.3125 -6.203125 C 9.9375 -5.578125 9.40625 -5.085938 8.71875 -4.734375 C 8.039062 -4.378906 7.253906 -4.203125 6.359375 -4.203125 C 6.253906 -4.203125 6.066406 -4.207031 5.796875 -4.21875 C 5.492188 -4.238281 5.273438 -4.25 5.140625 -4.25 C 4.742188 -4.25 4.429688 -4.144531 4.203125 -3.9375 C 3.972656 -3.738281 3.859375 -3.484375 3.859375 -3.171875 C 3.859375 -2.773438 3.984375 -2.484375 4.234375 -2.296875 C 4.484375 -2.117188 4.894531 -2.019531 5.46875 -2 L 8.40625 -1.90625 C 9.675781 -1.851562 10.613281 -1.554688 11.21875 -1.015625 C 11.832031 -0.472656 12.140625 0.296875 12.140625 1.296875 C 12.140625 2.035156 11.941406 2.703125 11.546875 3.296875 C 11.148438 3.890625 10.519531 4.363281 9.65625 4.71875 C 8.789062 5.082031 7.703125 5.265625 6.390625 5.265625 Z M 6.359375 -5.78125 C 7.234375 -5.78125 7.910156 -6.003906 8.390625 -6.453125 C 8.867188 -6.910156 9.109375 -7.554688 9.109375 -8.390625 C 9.109375 -9.242188 8.867188 -9.898438 8.390625 -10.359375 C 7.921875 -10.828125 7.242188 -11.0625 6.359375 -11.0625 C 5.472656 -11.0625 4.796875 -10.828125 4.328125 -10.359375 C 3.867188 -9.898438 3.640625 -9.242188 3.640625 -8.390625 C 3.640625 -7.554688 3.867188 -6.910156 4.328125 -6.453125 C 4.796875 -6.003906 5.472656 -5.78125 6.359375 -5.78125 Z M 6.390625 3.6875 C 7.296875 3.6875 8.039062 3.582031 8.625 3.375 C 9.207031 3.175781 9.625 2.910156 9.875 2.578125 C 10.132812 2.242188 10.265625 1.875 10.265625 1.46875 C 10.265625 1.09375 10.191406 0.789062 10.046875 0.5625 C 9.910156 0.34375 9.6875 0.175781 9.375 0.0625 C 9.070312 -0.0390625 8.65625 -0.109375 8.125 -0.140625 L 5.34375 -0.28125 L 4.953125 -0.28125 C 3.398438 -0.257812 2.625 0.34375 2.625 1.53125 C 2.625 2.96875 3.878906 3.6875 6.390625 3.6875 Z M 6.390625 3.6875 "/></g></g></g><g style="fill:#5271ff;fill-opacity:1;"><g transform="translate(23.690043, 22.217006)"><path style="stroke:none" d="M 2.484375 0 L 2.484375 -16.4375 L 8.703125 -16.4375 C 9.722656 -16.4375 10.582031 -16.273438 11.28125 -15.953125 C 11.988281 -15.628906 12.519531 -15.164062 12.875 -14.5625 C 13.226562 -13.96875 13.40625 -13.257812 13.40625 -12.4375 C 13.40625 -11.726562 13.210938 -11.082031 12.828125 -10.5 C 12.441406 -9.925781 11.890625 -9.476562 11.171875 -9.15625 L 11.171875 -8.921875 C 12.265625 -8.648438 13.09375 -8.160156 13.65625 -7.453125 C 14.226562 -6.742188 14.515625 -5.847656 14.515625 -4.765625 C 14.515625 -3.234375 14.066406 -2.054688 13.171875 -1.234375 C 12.273438 -0.410156 10.945312 0 9.1875 0 Z M 8.625 -9.53125 C 9.53125 -9.53125 10.234375 -9.765625 10.734375 -10.234375 C 11.234375 -10.710938 11.484375 -11.367188 11.484375 -12.203125 C 11.484375 -13.078125 11.238281 -13.734375 10.75 -14.171875 C 10.269531 -14.609375 9.5625 -14.828125 8.625 -14.828125 L 4.421875 -14.828125 L 4.421875 -9.53125 Z M 9.03125 -1.59375 C 11.375 -1.59375 12.546875 -2.648438 12.546875 -4.765625 C 12.546875 -6.878906 11.375 -7.9375 9.03125 -7.9375 L 4.421875 -7.9375 L 4.421875 -1.59375 Z M 9.03125 -1.59375 "/></g></g><g style="fill:#5271ff;fill-opacity:1;"><g transform="translate(39.503369, 22.217006)"><path style="stroke:none" d="M 4.9375 0.234375 C 4.0625 0.234375 3.367188 -0.015625 2.859375 -0.515625 C 2.359375 -1.015625 2.109375 -1.753906 2.109375 -2.734375 L 2.109375 -17.375 L 3.9375 -17.375 L 3.9375 -2.859375 C 3.9375 -2.347656 4.035156 -1.976562 4.234375 -1.75 C 4.441406 -1.519531 4.753906 -1.40625 5.171875 -1.40625 C 5.421875 -1.40625 5.675781 -1.445312 5.9375 -1.53125 L 6.109375 -1.484375 L 6.3125 -0.046875 C 6.175781 0.046875 5.984375 0.113281 5.734375 0.15625 C 5.484375 0.207031 5.21875 0.234375 4.9375 0.234375 Z M 4.9375 0.234375 "/></g></g><g style="fill:#5271ff;fill-opacity:1;"><g transform="translate(46.246792, 22.217006)"><path style="stroke:none" d="M 7.109375 0.234375 C 5.941406 0.234375 4.925781 -0.0078125 4.0625 -0.5 C 3.195312 -1 2.53125 -1.726562 2.0625 -2.6875 C 1.59375 -3.65625 1.359375 -4.820312 1.359375 -6.1875 C 1.359375 -7.5625 1.59375 -8.726562 2.0625 -9.6875 C 2.53125 -10.65625 3.195312 -11.382812 4.0625 -11.875 C 4.925781 -12.375 5.941406 -12.625 7.109375 -12.625 C 8.273438 -12.625 9.289062 -12.375 10.15625 -11.875 C 11.03125 -11.382812 11.703125 -10.65625 12.171875 -9.6875 C 12.640625 -8.726562 12.875 -7.5625 12.875 -6.1875 C 12.875 -4.820312 12.640625 -3.65625 12.171875 -2.6875 C 11.703125 -1.726562 11.03125 -1 10.15625 -0.5 C 9.289062 -0.0078125 8.273438 0.234375 7.109375 0.234375 Z M 7.109375 -1.40625 C 8.347656 -1.40625 9.296875 -1.796875 9.953125 -2.578125 C 10.609375 -3.359375 10.9375 -4.5625 10.9375 -6.1875 C 10.9375 -7.832031 10.609375 -9.039062 9.953125 -9.8125 C 9.296875 -10.59375 8.347656 -10.984375 7.109375 -10.984375 C 5.878906 -10.984375 4.929688 -10.59375 4.265625 -9.8125 C 3.609375 -9.03125 3.28125 -7.820312 3.28125 -6.1875 C 3.28125 -4.5625 3.609375 -3.359375 4.265625 -2.578125 C 4.929688 -1.796875 5.878906 -1.40625 7.109375 -1.40625 Z M 7.109375 -1.40625 "/></g></g><g style="fill:#5271ff;fill-opacity:1;"><g transform="translate(60.385501, 22.217006)"><path style="stroke:none" d="M 6.390625 5.265625 C 4.429688 5.265625 3 4.9375 2.09375 4.28125 C 1.195312 3.625 0.75 2.757812 0.75 1.6875 C 0.75 0.988281 0.957031 0.429688 1.375 0.015625 C 1.800781 -0.390625 2.414062 -0.679688 3.21875 -0.859375 L 3.21875 -1.09375 C 2.832031 -1.3125 2.539062 -1.566406 2.34375 -1.859375 C 2.15625 -2.148438 2.0625 -2.5 2.0625 -2.90625 C 2.0625 -3.382812 2.210938 -3.773438 2.515625 -4.078125 C 2.828125 -4.378906 3.28125 -4.609375 3.875 -4.765625 L 3.875 -5 C 2.53125 -5.707031 1.859375 -6.863281 1.859375 -8.46875 C 1.859375 -9.28125 2.039062 -10 2.40625 -10.625 C 2.769531 -11.257812 3.289062 -11.75 3.96875 -12.09375 C 4.65625 -12.445312 5.453125 -12.625 6.359375 -12.625 C 7.398438 -12.625 8.269531 -12.398438 8.96875 -11.953125 C 9.226562 -12.242188 9.421875 -12.554688 9.546875 -12.890625 C 9.679688 -13.222656 9.769531 -13.597656 9.8125 -14.015625 L 10.046875 -14.15625 L 11.546875 -13.796875 C 11.472656 -13.171875 11.285156 -12.640625 10.984375 -12.203125 C 10.679688 -11.765625 10.253906 -11.40625 9.703125 -11.125 L 9.703125 -10.890625 C 10.097656 -10.578125 10.390625 -10.207031 10.578125 -9.78125 C 10.773438 -9.351562 10.875 -8.863281 10.875 -8.3125 C 10.875 -7.53125 10.6875 -6.828125 10.3125 -6.203125 C 9.9375 -5.578125 9.40625 -5.085938 8.71875 -4.734375 C 8.039062 -4.378906 7.253906 -4.203125 6.359375 -4.203125 C 6.253906 -4.203125 6.066406 -4.207031 5.796875 -4.21875 C 5.492188 -4.238281 5.273438 -4.25 5.140625 -4.25 C 4.742188 -4.25 4.429688 -4.144531 4.203125 -3.9375 C 3.972656 -3.738281 3.859375 -3.484375 3.859375 -3.171875 C 3.859375 -2.773438 3.984375 -2.484375 4.234375 -2.296875 C 4.484375 -2.117188 4.894531 -2.019531 5.46875 -2 L 8.40625 -1.90625 C 9.675781 -1.851562 10.613281 -1.554688 11.21875 -1.015625 C 11.832031 -0.472656 12.140625 0.296875 12.140625 1.296875 C 12.140625 2.035156 11.941406 2.703125 11.546875 3.296875 C 11.148438 3.890625 10.519531 4.363281 9.65625 4.71875 C 8.789062 5.082031 7.703125 5.265625 6.390625 5.265625 Z M 6.359375 -5.78125 C 7.234375 -5.78125 7.910156 -6.003906 8.390625 -6.453125 C 8.867188 -6.910156 9.109375 -7.554688 9.109375 -8.390625 C 9.109375 -9.242188 8.867188 -9.898438 8.390625 -10.359375 C 7.921875 -10.828125 7.242188 -11.0625 6.359375 -11.0625 C 5.472656 -11.0625 4.796875 -10.828125 4.328125 -10.359375 C 3.867188 -9.898438 3.640625 -9.242188 3.640625 -8.390625 C 3.640625 -7.554688 3.867188 -6.910156 4.328125 -6.453125 C 4.796875 -6.003906 5.472656 -5.78125 6.359375 -5.78125 Z M 6.390625 3.6875 C 7.296875 3.6875 8.039062 3.582031 8.625 3.375 C 9.207031 3.175781 9.625 2.910156 9.875 2.578125 C 10.132812 2.242188 10.265625 1.875 10.265625 1.46875 C 10.265625 1.09375 10.191406 0.789062 10.046875 0.5625 C 9.910156 0.34375 9.6875 0.175781 9.375 0.0625 C 9.070312 -0.0390625 8.65625 -0.109375 8.125 -0.140625 L 5.34375 -0.28125 L 4.953125 -0.28125 C 3.398438 -0.257812 2.625 0.34375 2.625 1.53125 C 2.625 2.96875 3.878906 3.6875 6.390625 3.6875 Z M 6.390625 3.6875 "/></g></g></g></svg>